<svg width="1526" height="264" viewBox="0 0 1526 264" fill="none" xmlns="http://www.w3.org/2000/svg">
<g clip-path="url(#clip0_7387_903)">
<path fill-rule="evenodd" clip-rule="evenodd" d="M171.234 131.73C172.054 131.73 172.715 132.39 172.715 133.21V150.41C172.715 151.23 172.054 151.891 171.234 151.891H160.193V172C160.193 172 160.654 172.26 160.804 172.46L165.665 178.74C165.668 178.747 165.774 178.951 165.824 179.05H181.055C181.876 179.05 182.535 179.71 182.535 180.53V202.63C182.535 203.45 181.876 204.11 181.055 204.11H176.655C176.915 204.37 177.065 204.72 177.065 205.08V208.15C177.065 208.96 176.405 209.63 175.585 209.63H167.404C168.224 209.63 168.885 210.29 168.885 211.11V214.17C168.885 214.99 168.224 215.65 167.404 215.65H139.852C139.042 215.65 138.372 214.99 138.372 214.17V211.11C138.372 210.29 139.032 209.63 139.852 209.63H131.671C130.861 209.63 130.191 208.96 130.191 208.15V205.08C130.191 204.67 130.341 204.36 130.601 204.11H126.211C125.401 204.11 124.73 203.45 124.73 202.63V180.53C124.73 179.71 125.391 179.05 126.211 179.05H141.802C141.807 179.04 141.904 178.838 141.953 178.74L146.812 172.46C146.815 172.456 146.963 172.259 147.062 172.21V151.891H135.972C135.151 151.891 134.492 151.23 134.492 150.41V133.21C134.492 132.451 135.072 131.815 135.82 131.738L135.962 131.73H171.234ZM139.862 190.49C139.052 190.49 138.382 191.15 138.382 191.97V202.07C138.382 202.89 139.042 203.55 139.862 203.55H167.415C168.235 203.55 168.894 202.89 168.894 202.07V191.97C168.894 191.15 168.234 190.49 167.415 190.49H139.862Z" fill="black"/>
<path d="M123.86 169.25C124.67 169.25 125.341 169.91 125.341 170.73V178.69C125.341 179.51 124.68 180.17 123.86 180.17H115.89C115.07 180.17 114.41 179.51 114.41 178.69V170.73C114.41 169.911 115.07 169.25 115.89 169.25H123.86Z" fill="black"/>
<path d="M191.446 169.25C192.256 169.25 192.927 169.91 192.927 170.73V178.69C192.926 179.51 192.266 180.17 191.446 180.17H183.466C182.656 180.17 181.985 179.51 181.985 178.69V170.73C181.985 169.91 182.646 169.25 183.466 169.25H191.446Z" fill="black"/>
<path d="M112.97 150.21C113.78 150.21 114.45 150.87 114.45 151.69V168.891C114.45 169.71 113.79 170.37 112.97 170.37H104.999C104.179 170.37 103.519 169.71 103.519 168.891V151.69C103.519 150.87 104.179 150.21 104.999 150.21H112.97Z" fill="black"/>
<path d="M202.338 150.21C203.157 150.21 203.817 150.881 203.817 151.69V168.891C203.817 169.71 203.157 170.37 202.338 170.37H194.356C193.547 170.37 192.877 169.7 192.877 168.891V151.69C192.877 150.88 193.536 150.21 194.356 150.21H202.338Z" fill="black"/>
<path d="M128.211 91.46C129.021 91.4601 129.691 92.1205 129.691 92.9404V105.24C129.691 106.06 129.031 106.72 128.211 106.72H115.89C115.08 106.72 114.41 106.06 114.41 105.24V92.9404C114.41 92.1205 115.07 91.46 115.89 91.46H128.211Z" fill="black"/>
<path d="M191.446 91.46C192.256 91.46 192.927 92.1204 192.927 92.9404V105.24C192.927 106.06 192.266 106.72 191.446 106.72H179.126C178.316 106.72 177.645 106.06 177.645 105.24V92.9404C177.645 92.1204 178.306 91.46 179.126 91.46H191.446Z" fill="black"/>
<path fill-rule="evenodd" clip-rule="evenodd" d="M307.026 0C309.236 0 311.027 1.79 311.027 4V260C311.027 262.21 309.236 264 307.026 264H4.00034C1.79015 264 0 262.21 0 260V4C0 1.79 1.79015 0 4.00034 0H307.026ZM105.859 29.4502C105.049 29.4504 104.379 30.1108 104.379 30.9307V39.4004C104.379 40.2203 103.718 40.8799 102.898 40.8799H80.7666C79.9467 40.88 79.287 41.5404 79.287 42.3604V51.96C79.287 52.78 78.6265 53.4404 77.8064 53.4404H68.1962C67.3763 53.4404 66.7158 54.1 66.7156 54.9199V65.0303C66.7156 65.8501 66.0559 66.5095 65.236 66.5098H54.5545C53.7345 66.5099 53.0748 67.1703 53.0748 67.9902V77.5898C53.0748 78.4098 52.4143 79.0703 51.5942 79.0703H41.984C41.1641 79.0703 40.5037 79.73 40.5035 80.5498V100.46C40.5035 101.28 39.8429 101.94 39.0229 101.94H29.9723C29.1524 101.941 28.4928 102.6 28.4927 103.42V132.05C28.4927 132.87 29.1523 133.53 29.9723 133.53H39.0229C39.8428 133.53 40.5032 134.19 40.5035 135.01V145.12C40.5035 145.94 41.164 146.601 41.984 146.601H51.5942C52.4143 146.601 53.0748 147.26 53.0748 148.08V157.681C53.0751 158.5 53.7346 159.16 54.5545 159.16H61.4056C62.2255 159.16 62.8852 159.821 62.8852 160.641V180.55C62.8852 181.37 63.5458 182.03 64.3658 182.03H74.4868C75.3067 182.03 75.9664 181.37 75.9664 180.55V172.08C75.9665 171.26 76.627 170.601 77.447 170.601H78.3162C79.1363 170.601 79.7968 169.94 79.7968 169.12V76.2803C79.7968 75.4604 80.4566 74.8001 81.2765 74.7998H91.3974C92.2175 74.7998 92.878 75.4603 92.878 76.2803V203.931C92.8778 204.75 92.2174 205.41 91.3974 205.41H86.6978C85.8777 205.41 85.2172 206.071 85.2172 206.891V233.33C85.2172 234.15 85.8777 234.811 86.6978 234.811H224.869C225.689 234.811 226.349 234.15 226.349 233.33V206.891C226.349 206.071 225.689 205.41 224.869 205.41H220.169C219.359 205.41 218.689 204.75 218.689 203.931V76.2803C218.689 75.4603 219.349 74.7998 220.169 74.7998H230.289C231.109 74.7998 231.77 75.4603 231.77 76.2803V169.12C231.77 169.94 232.43 170.601 233.25 170.601H234.12C234.94 170.601 235.6 171.26 235.6 172.08V180.55C235.6 181.37 236.26 182.03 237.08 182.03H247.201C248.021 182.03 248.681 181.37 248.681 180.55V160.641C248.681 159.821 249.341 159.16 250.161 159.16H257.062C257.882 159.16 258.541 158.5 258.542 157.681V148.08C258.542 147.26 259.202 146.601 260.022 146.601H269.633C270.453 146.6 271.113 145.94 271.113 145.12V135.01C271.113 134.19 271.774 133.53 272.594 133.53H281.644C282.464 133.53 283.124 132.87 283.124 132.05V103.42C283.124 102.6 282.464 101.941 281.644 101.94H272.594C271.773 101.94 271.113 101.28 271.113 100.46V80.5498C271.113 79.7301 270.453 79.0705 269.633 79.0703H260.022C259.212 79.0703 258.542 78.4098 258.542 77.5898V67.9902C258.542 67.1702 257.882 66.5098 257.062 66.5098H246.381C245.571 66.5098 244.901 65.8502 244.901 65.0303V54.9199C244.901 54.1002 244.241 53.4407 243.421 53.4404H233.81C232.99 53.4404 232.329 52.78 232.329 51.96V42.3604C232.329 41.5404 231.67 40.8799 230.85 40.8799H208.718C207.908 40.8799 207.237 40.2203 207.237 39.4004H207.388V30.9307C207.388 30.162 206.808 29.5336 206.06 29.458L205.897 29.4502H105.859Z" fill="black"/>
<path fill-rule="evenodd" clip-rule="evenodd" d="M530.754 98.0537C535.917 98.0538 540.62 99.0749 544.863 101.065C549.208 102.954 552.888 105.864 555.955 109.845C559.022 113.724 561.373 118.624 563.009 124.596C564.645 130.567 565.463 137.56 565.463 145.522C565.463 153.485 564.645 160.478 563.009 166.45C561.373 172.422 559.022 177.424 555.955 181.405C552.888 185.284 549.208 188.194 544.863 190.185C540.62 192.073 535.917 192.991 530.754 192.991C523.7 192.991 518.026 191.358 513.68 188.092C509.591 184.876 506.268 180.639 503.865 175.331C503.763 175.076 503.457 174.872 503.201 174.872C502.792 174.872 502.434 175.229 502.434 175.638V224.587C502.434 225.403 501.77 226.066 500.952 226.066H481.374C480.556 226.066 479.892 225.403 479.891 224.587V101.627C479.892 100.81 480.556 100.146 481.374 100.146H500.952C501.77 100.147 502.434 100.81 502.434 101.627V115.408C502.434 115.817 502.792 116.174 503.201 116.174C503.508 116.174 503.763 116.021 503.865 115.715C506.319 110.407 509.591 106.17 513.68 102.954C518.026 99.6875 523.7 98.0537 530.754 98.0537ZM521.246 116.021C516.083 116.021 511.636 117.297 507.853 119.9C504.224 122.35 502.384 126.178 502.384 131.333V159.814C502.384 164.97 504.223 168.849 507.853 171.401C511.584 173.851 516.083 175.076 521.246 175.076C527.84 175.076 532.85 173.086 536.377 169.104C540.006 165.123 541.846 159.661 541.846 152.771V138.377C541.846 131.486 540.006 126.025 536.377 122.044C532.85 118.063 527.789 116.072 521.246 116.072V116.021Z" fill="black"/>
<path fill-rule="evenodd" clip-rule="evenodd" d="M418.499 66.1025C434.447 66.1026 446.204 71.666 453.718 82.793C461.233 93.92 464.964 109.488 464.964 129.547C464.964 149.606 461.182 165.174 453.718 176.301C446.204 187.428 434.447 192.991 418.499 192.991C410.524 192.991 403.571 191.562 397.744 188.755C391.865 185.846 387.009 181.66 383.124 176.25C379.393 170.84 376.53 164.255 374.69 156.395C372.952 148.534 372.032 139.602 372.032 129.496C372.032 119.39 372.901 110.61 374.69 102.75C376.582 94.7875 379.393 88.1008 383.124 82.6904C387.009 77.2802 391.865 73.1969 397.744 70.3896C403.622 67.4803 410.524 66 418.499 66V66.1025ZM418.499 84.8857C410.269 84.8857 404.542 87.9476 401.22 94.0215C398.05 100.095 396.466 108.416 396.466 118.981V140.062C396.466 150.627 398.051 158.947 401.22 165.021C404.491 171.094 410.269 174.157 418.499 174.157C422.588 174.157 426.064 173.392 428.875 171.86C431.687 170.227 433.936 167.93 435.571 165.021C437.309 162.111 438.588 158.538 439.252 154.302C440.07 149.963 440.479 145.165 440.479 139.908V118.981C440.479 108.416 438.843 100.095 435.571 94.0215C432.402 87.9479 426.728 84.8858 418.499 84.8857Z" fill="black"/>
<path fill-rule="evenodd" clip-rule="evenodd" d="M622.971 98.0537C629.565 98.0537 635.495 99.1774 640.76 101.372C646.025 103.465 650.524 106.527 654.153 110.508C657.885 114.489 660.798 119.288 662.792 124.902C664.785 130.517 665.808 136.744 665.808 143.532V149.453C665.808 150.27 665.144 150.933 664.326 150.934H603.547C602.729 150.934 602.064 151.597 602.064 152.413V153.23C602.064 159.815 604.109 165.123 608.249 169.206C612.339 173.187 618.115 175.178 625.476 175.178C631.099 175.178 635.904 174.055 639.891 171.86C643.47 169.819 646.537 167.216 649.042 164.103C649.604 163.388 650.677 163.286 651.291 163.949L662.077 174.719C662.588 175.229 662.639 175.995 662.23 176.557C658.959 180.946 654.409 184.723 648.479 187.888C642.243 191.307 634.319 192.991 624.709 192.991C617.451 192.991 610.958 191.869 605.335 189.674C599.712 187.428 594.958 184.263 591.073 180.18C587.341 176.096 584.428 171.145 582.434 165.429C580.441 159.559 579.469 153.026 579.469 145.728C579.469 138.429 580.441 131.742 582.434 125.872C584.53 120.002 587.495 115.051 591.226 110.917C594.958 106.834 599.508 103.669 604.773 101.423C610.192 99.1771 616.224 98.1055 622.92 98.1055L622.971 98.0537ZM623.098 114.592C616.772 114.597 611.669 116.588 607.789 120.563C603.904 124.545 601.961 129.802 601.961 136.387C601.962 137.05 602.524 137.611 603.188 137.611H641.681C642.498 137.611 643.163 136.947 643.163 136.131V136.029C643.163 129.445 641.322 124.238 637.693 120.41C634.171 116.536 629.322 114.597 623.098 114.592Z" fill="black"/>
<path d="M1024.71 66.1016C1030.79 66.1016 1036.16 66.9185 1040.71 68.5518C1045.41 70.1851 1049.4 72.4822 1052.67 75.3916C1056.1 78.3009 1058.86 81.8228 1060.95 85.957C1062.95 89.5299 1064.58 93.4093 1065.86 97.5947C1066.11 98.3603 1065.65 99.1767 1064.84 99.3809L1046.49 104.588C1045.72 104.792 1044.95 104.383 1044.7 103.617C1043.98 101.525 1043.16 99.4321 1042.29 97.3906C1041.37 94.9407 1040.1 92.7969 1038.41 91.0615C1036.88 89.173 1034.98 87.6927 1032.79 86.6719C1030.59 85.498 1027.78 84.9365 1024.5 84.9365C1016.89 84.9366 1011.42 87.9993 1008.15 94.0732C1004.88 100.147 1003.24 108.467 1003.24 119.032V138.734C1003.24 143.992 1003.6 148.891 1004.31 153.332C1005.13 157.671 1006.41 161.397 1008.2 164.562C1009.94 167.726 1012.24 170.176 1015.05 171.963C1017.86 173.596 1021.39 174.412 1025.63 174.412C1032.22 174.412 1037.18 172.473 1040.61 168.594C1044.03 164.613 1045.72 159.559 1045.72 153.485V144.91C1045.72 144.094 1045.05 143.43 1044.24 143.43H1024.81C1023.99 143.43 1023.33 142.767 1023.33 141.95V128.169C1023.33 127.352 1023.99 126.689 1024.81 126.688H1064.84C1065.65 126.688 1066.32 127.352 1066.32 128.169V189.419C1066.32 190.235 1065.65 190.898 1064.84 190.898H1047.15C1046.33 190.898 1045.67 190.235 1045.67 189.419V174.668C1045.67 174.209 1045.31 173.8 1044.8 173.8C1044.44 173.8 1044.13 174.004 1044.03 174.311C1043.01 176.607 1041.78 178.853 1040.4 180.997C1038.87 183.345 1036.98 185.386 1034.78 187.173C1032.53 188.908 1029.92 190.337 1026.86 191.409C1023.94 192.481 1020.52 192.991 1016.63 192.991C1004.21 192.991 994.754 187.53 988.313 176.658C981.974 165.633 978.805 150.218 978.805 130.414C978.805 109.538 982.537 93.6138 990.051 82.5889C997.566 71.5639 1009.12 66.0508 1024.76 66.0508L1024.71 66.1016Z" fill="black"/>
<path fill-rule="evenodd" clip-rule="evenodd" d="M834.6 68.1943C846.562 68.1943 855.712 71.6148 862.051 78.4033C868.39 85.1918 871.559 94.4815 871.559 106.17C871.559 115.204 869.463 122.809 865.22 129.036C861.437 134.651 856.121 138.326 849.322 140.163C848.402 140.418 847.892 141.44 848.352 142.308L872.581 188.755C873.092 189.725 872.377 190.898 871.252 190.898H849.22C848.658 190.898 848.147 190.592 847.892 190.082L825.297 144.094C825.041 143.583 824.53 143.277 823.968 143.277H812.415C811.597 143.277 810.933 143.94 810.932 144.757V189.47C810.932 190.286 810.268 190.95 809.45 190.95H789.309C788.492 190.95 787.827 190.286 787.827 189.47V69.6748C787.827 68.8583 788.492 68.1945 789.309 68.1943H834.6ZM812.517 87.0293C811.7 87.0293 811.035 87.6931 811.035 88.5098V123.881C811.035 124.698 811.7 125.361 812.517 125.361H829.898C836.134 125.361 840.581 124.136 843.291 121.687C846 119.083 847.329 115.051 847.329 109.538V102.852C847.329 97.3393 846 93.3581 843.291 90.9082C840.581 88.3051 836.134 87.0294 829.898 87.0293H812.517Z" fill="black"/>
<path d="M735.022 98.0537C743.916 98.0537 751.176 101.065 756.696 107.037C762.319 112.907 765.131 121.329 765.131 132.354V189.419C765.131 190.236 764.466 190.899 763.648 190.899H744.07C743.252 190.899 742.588 190.236 742.588 189.419V135.519C742.588 122.401 736.913 115.816 725.514 115.816C723.163 115.816 720.914 116.123 718.818 116.685C716.722 117.246 714.779 118.215 712.99 119.491C711.355 120.665 709.974 122.146 708.952 123.881C708.032 125.616 707.52 127.76 707.52 130.21V189.419C707.52 190.236 706.856 190.899 706.038 190.899H686.46C685.642 190.899 684.977 190.236 684.977 189.419V101.627C684.977 100.81 685.642 100.146 686.46 100.146H706.038C706.856 100.146 707.52 100.81 707.52 101.627V115.612C707.52 115.919 707.776 116.123 708.032 116.123C708.236 116.123 708.441 115.969 708.543 115.816C710.536 111.019 713.553 106.935 717.54 103.516C721.782 99.8917 727.559 98.0537 734.971 98.0537H735.022Z" fill="black"/>
<path fill-rule="evenodd" clip-rule="evenodd" d="M943.534 68.0928C944.198 68.0928 944.76 68.5526 944.964 69.165L978.805 188.959L978.908 189.011C979.163 189.929 978.447 190.848 977.476 190.848H956.057C955.393 190.848 954.831 190.389 954.626 189.776L946.6 160.784C946.447 160.172 945.834 159.713 945.169 159.713H910.971C910.307 159.713 909.744 160.172 909.539 160.784L901.668 189.725C901.514 190.337 900.9 190.797 900.236 190.797H880.045C879.073 190.797 878.357 189.878 878.613 188.959L912.3 69.165C912.505 68.5526 913.067 68.0929 913.731 68.0928H943.534ZM928.249 90.9082C927.84 90.9082 927.482 91.1639 927.38 91.5723L914.498 139.143H914.447C914.191 140.061 914.908 140.98 915.879 140.98H940.568C941.54 140.98 942.256 140.061 942 139.143L929.118 91.5723C929.016 91.1639 928.658 90.9082 928.249 90.9082Z" fill="black"/>
<path d="M1132 68H1170.28C1202.2 68 1217.72 89.8261 1217.72 129.939C1217.72 170.052 1202.2 191.879 1170.28 191.879H1132V68ZM1154.75 173.235H1168.69C1185.62 173.235 1193.55 161.699 1193.55 140.577V119.108C1193.55 98.169 1185.62 86.6338 1168.69 86.6338H1154.75V173.235Z" fill="#9F9FA9"/>
<path d="M1277.81 194C1250.28 194 1233.35 175.54 1233.35 146.084C1233.35 116.629 1250.28 98.169 1277.81 98.169C1305.33 98.169 1322.26 116.629 1322.26 146.084C1322.26 175.54 1305.32 194 1277.81 194ZM1277.81 176.61C1290.68 176.61 1298.79 168.451 1298.79 153.183V138.986C1298.79 123.728 1290.68 115.559 1277.81 115.559C1264.93 115.559 1256.81 123.718 1256.81 138.986V153.183C1256.81 168.441 1264.93 176.61 1277.81 176.61Z" fill="#9F9FA9"/>
<path d="M1386.09 194C1358.22 194 1341.46 175.54 1341.46 146.084C1341.46 116.629 1358.39 98.169 1385.91 98.169C1405.13 98.169 1416.6 107.042 1422.6 120.179L1405.13 129.766C1401.96 121.953 1396.14 116.629 1385.91 116.629C1372.68 116.629 1365.09 125.146 1365.09 138.456V153.713C1365.09 166.85 1372.5 175.54 1386.26 175.54C1397.02 175.54 1403.02 170.042 1407.08 161.873L1424.01 171.99C1417.84 184.943 1405.66 194 1386.09 194Z" fill="#9F9FA9"/>
<path d="M1484.93 194C1465 194 1450 187.258 1441.89 176.61L1455.12 164.545C1462.53 172.704 1472.23 177.498 1485.11 177.498C1496.39 177.498 1503.8 173.775 1503.8 165.963C1503.8 159.394 1498.69 157.62 1491.28 156.559L1476.64 154.254C1461.47 151.949 1447 145.911 1447 127.808C1447 108.817 1462.35 98.169 1487.04 98.169C1504.51 98.169 1516.86 103.493 1524.8 112.366L1512.98 125.503C1507.86 119.822 1499.39 114.681 1486.35 114.681C1475.05 114.681 1469.05 118.404 1469.05 125.503C1469.05 132.071 1474.34 134.019 1481.75 135.09L1496.22 137.395C1511.57 139.7 1526.03 145.554 1526.03 163.658C1526.03 181.761 1510.69 194 1484.93 194Z" fill="#9F9FA9"/>
</g>
<defs>
<clipPath id="clip0_7387_903">
<rect width="1526" height="264" fill="white"/>
</clipPath>
</defs>
</svg>
